<svg width="48" height="48" viewBox="0 0 48 48" fill="none" xmlns="http://www.w3.org/2000/svg">
<g clip-path="url(#clip0_1862_2928)">
<path d="M26.3381 6.55582C26.649 6.33344 27.0128 6.1965 27.3931 6.15867C27.7735 6.12085 28.1571 6.18346 28.5057 6.34027C28.8542 6.49707 29.1556 6.74257 29.3796 7.05226C29.6036 7.36194 29.7425 7.72498 29.7824 8.10513L29.7943 8.33156V39.3415C29.7944 39.7237 29.6942 40.0993 29.5038 40.4307C29.3134 40.7621 29.0393 41.0378 28.7091 41.2302C28.3788 41.4226 28.0038 41.525 27.6216 41.5271C27.2393 41.5292 26.8632 41.431 26.5308 41.2424L26.3401 41.1192L13.2684 31.7817H7.94511C6.94288 31.782 5.97756 31.4035 5.24267 30.722C4.50778 30.0405 4.05763 29.1065 3.98247 28.107L3.97253 27.8091V19.8639C3.97272 18.8621 4.35146 17.8972 5.03289 17.1628C5.71431 16.4283 6.6481 15.9784 7.64717 15.9033L7.94511 15.8914H13.2684L26.3381 6.55582ZM34.9308 18.2193L37.7394 21.0279L40.548 18.2193C40.7313 18.0296 40.9504 17.8783 41.1928 17.7742C41.4351 17.6701 41.6957 17.6153 41.9595 17.613C42.2232 17.6107 42.4848 17.661 42.7289 17.7608C42.973 17.8607 43.1948 18.0082 43.3813 18.1947C43.5678 18.3812 43.7153 18.603 43.8151 18.8471C43.915 19.0912 43.9653 19.3527 43.963 19.6165C43.9607 19.8802 43.9059 20.1408 43.8018 20.3832C43.6977 20.6255 43.5464 20.8447 43.3566 21.0279L40.548 23.8365L43.3566 26.6451C43.7293 27.0176 43.9388 27.5228 43.939 28.0497C43.9392 28.5766 43.7301 29.082 43.3576 29.4547C42.9852 29.8274 42.4799 30.0369 41.953 30.0371C41.4261 30.0373 40.9207 29.8282 40.548 29.4557L37.7394 26.6451L34.9308 29.4557C34.5581 29.8282 34.0527 30.0373 33.5258 30.0371C32.9989 30.0369 32.4937 29.8274 32.1212 29.4547C31.7488 29.082 31.5396 28.5766 31.5398 28.0497C31.54 27.5228 31.7495 27.0176 32.1222 26.6451L34.9308 23.8365L32.1222 21.0279C31.9325 20.8447 31.7812 20.6255 31.6771 20.3832C31.573 20.1408 31.5182 19.8802 31.5159 19.6165C31.5136 19.3527 31.5639 19.0912 31.6637 18.8471C31.7636 18.603 31.9111 18.3812 32.0976 18.1947C32.2841 18.0082 32.5059 17.8607 32.75 17.7608C32.9941 17.661 33.2556 17.6107 33.5194 17.613C33.7831 17.6153 34.0437 17.6701 34.2861 17.7742C34.5284 17.8783 34.7476 18.0296 34.9308 18.2193Z" fill="black"/>
</g>
<defs>
<clipPath id="clip0_1862_2928">
<rect width="47.6709" height="47.6709" fill="white"/>
</clipPath>
</defs>
</svg>
