<svg width="61" height="16" viewBox="0 0 61 16" fill="none" xmlns="http://www.w3.org/2000/svg">
<path d="M9.88 12.66H4.06L3.06 15.5H0.68L5.66 1.58H8.3L13.28 15.5H10.88L9.88 12.66ZM9.24 10.8L6.98 4.34L4.7 10.8H9.24ZM17.7253 6.12C18.112 5.58667 18.6386 5.15333 19.3053 4.82C19.9853 4.47333 20.7386 4.3 21.5653 4.3C22.5386 4.3 23.4186 4.53333 24.2053 5C24.992 5.46667 25.612 6.13333 26.0653 7C26.5186 7.85333 26.7453 8.83333 26.7453 9.94C26.7453 11.0467 26.5186 12.04 26.0653 12.92C25.612 13.7867 24.9853 14.4667 24.1853 14.96C23.3986 15.44 22.5253 15.68 21.5653 15.68C20.712 15.68 19.952 15.5133 19.2853 15.18C18.632 14.8467 18.112 14.42 17.7253 13.9V15.5H15.4453V0.7H17.7253V6.12ZM24.4253 9.94C24.4253 9.18 24.2653 8.52667 23.9453 7.98C23.6386 7.42 23.2253 7 22.7053 6.72C22.1986 6.42667 21.652 6.28 21.0653 6.28C20.492 6.28 19.9453 6.42667 19.4253 6.72C18.9186 7.01333 18.5053 7.44 18.1853 8C17.8786 8.56 17.7253 9.22 17.7253 9.98C17.7253 10.74 17.8786 11.4067 18.1853 11.98C18.5053 12.54 18.9186 12.9667 19.4253 13.26C19.9453 13.5533 20.492 13.7 21.0653 13.7C21.652 13.7 22.1986 13.5533 22.7053 13.26C23.2253 12.9533 23.6386 12.5133 23.9453 11.94C24.2653 11.3667 24.4253 10.7 24.4253 9.94ZM33.78 15.68C32.74 15.68 31.8 15.4467 30.96 14.98C30.12 14.5 29.46 13.8333 28.98 12.98C28.5 12.1133 28.26 11.1133 28.26 9.98C28.26 8.86 28.5067 7.86667 29 7C29.4933 6.13333 30.1667 5.46667 31.02 5C31.8733 4.53333 32.8267 4.3 33.88 4.3C34.9333 4.3 35.8867 4.53333 36.74 5C37.5933 5.46667 38.2667 6.13333 38.76 7C39.2533 7.86667 39.5 8.86 39.5 9.98C39.5 11.1 39.2467 12.0933 38.74 12.96C38.2333 13.8267 37.54 14.5 36.66 14.98C35.7933 15.4467 34.8333 15.68 33.78 15.68ZM33.78 13.7C34.3667 13.7 34.9133 13.56 35.42 13.28C35.94 13 36.36 12.58 36.68 12.02C37 11.46 37.16 10.78 37.16 9.98C37.16 9.18 37.0067 8.50667 36.7 7.96C36.3933 7.4 35.9867 6.98 35.48 6.7C34.9733 6.42 34.4267 6.28 33.84 6.28C33.2533 6.28 32.7067 6.42 32.2 6.7C31.7067 6.98 31.3133 7.4 31.02 7.96C30.7267 8.50667 30.58 9.18 30.58 9.98C30.58 11.1667 30.88 12.0867 31.48 12.74C32.0933 13.38 32.86 13.7 33.78 13.7ZM51.7339 4.48V15.5H49.4539V14.2C49.0939 14.6533 48.6206 15.0133 48.0339 15.28C47.4606 15.5333 46.8472 15.66 46.1939 15.66C45.3272 15.66 44.5472 15.48 43.8539 15.12C43.1739 14.76 42.6339 14.2267 42.2339 13.52C41.8472 12.8133 41.6539 11.96 41.6539 10.96V4.48H43.9139V10.62C43.9139 11.6067 44.1606 12.3667 44.6539 12.9C45.1472 13.42 45.8206 13.68 46.6739 13.68C47.5272 13.68 48.2006 13.42 48.6939 12.9C49.2006 12.3667 49.4539 11.6067 49.4539 10.62V4.48H51.7339ZM57.4022 6.34V12.44C57.4022 12.8533 57.4955 13.1533 57.6822 13.34C57.8822 13.5133 58.2155 13.6 58.6822 13.6H60.0822V15.5H58.2822C57.2555 15.5 56.4689 15.26 55.9222 14.78C55.3755 14.3 55.1022 13.52 55.1022 12.44V6.34H53.8022V4.48H55.1022V1.74H57.4022V4.48H60.0822V6.34H57.4022Z" fill="#1E1E1E"/>
</svg>
