<svg width="64" height="15" viewBox="0 0 64 15" fill="none" xmlns="http://www.w3.org/2000/svg">
<path d="M2.78 2.44V6.52H7.58V8.38H2.78V12.64H8.18V14.5H0.5V0.579999H8.18V2.44H2.78ZM15.2483 12.46L18.3683 3.48H20.7883L16.5883 14.5H13.8683L9.68828 3.48H12.1283L15.2483 12.46ZM32.6117 8.72C32.6117 9.13333 32.5851 9.50667 32.5317 9.84H24.1117C24.1784 10.72 24.5051 11.4267 25.0917 11.96C25.6784 12.4933 26.3984 12.76 27.2517 12.76C28.4784 12.76 29.3451 12.2467 29.8517 11.22H32.3117C31.9784 12.2333 31.3717 13.0667 30.4917 13.72C29.6251 14.36 28.5451 14.68 27.2517 14.68C26.1984 14.68 25.2517 14.4467 24.4117 13.98C23.5851 13.5 22.9317 12.8333 22.4517 11.98C21.9851 11.1133 21.7517 10.1133 21.7517 8.98C21.7517 7.84667 21.9784 6.85333 22.4317 6C22.8984 5.13333 23.5451 4.46667 24.3717 4C25.2117 3.53333 26.1717 3.3 27.2517 3.3C28.2917 3.3 29.2184 3.52667 30.0317 3.98C30.8451 4.43333 31.4784 5.07333 31.9317 5.9C32.3851 6.71333 32.6117 7.65333 32.6117 8.72ZM30.2317 8C30.2184 7.16 29.9184 6.48667 29.3317 5.98C28.7451 5.47333 28.0184 5.22 27.1517 5.22C26.3651 5.22 25.6917 5.47333 25.1317 5.98C24.5717 6.47333 24.2384 7.14667 24.1317 8H30.2317ZM40.4155 3.3C41.2821 3.3 42.0555 3.48 42.7355 3.84C43.4288 4.2 43.9688 4.73333 44.3555 5.44C44.7421 6.14667 44.9355 7 44.9355 8V14.5H42.6755V8.34C42.6755 7.35333 42.4288 6.6 41.9355 6.08C41.4421 5.54667 40.7688 5.28 39.9155 5.28C39.0621 5.28 38.3821 5.54667 37.8755 6.08C37.3821 6.6 37.1355 7.35333 37.1355 8.34V14.5H34.8555V3.48H37.1355V4.74C37.5088 4.28667 37.9821 3.93333 38.5555 3.68C39.1421 3.42667 39.7621 3.3 40.4155 3.3ZM50.5038 5.34V11.44C50.5038 11.8533 50.5971 12.1533 50.7838 12.34C50.9838 12.5133 51.3171 12.6 51.7838 12.6H53.1838V14.5H51.3838C50.3571 14.5 49.5704 14.26 49.0238 13.78C48.4771 13.3 48.2038 12.52 48.2038 11.44V5.34H46.9038V3.48H48.2038V0.74H50.5038V3.48H53.1838V5.34H50.5038ZM59.2852 14.68C58.4185 14.68 57.6385 14.5267 56.9452 14.22C56.2652 13.9 55.7252 13.4733 55.3252 12.94C54.9252 12.3933 54.7118 11.7867 54.6852 11.12H57.0452C57.0852 11.5867 57.3052 11.98 57.7052 12.3C58.1185 12.6067 58.6318 12.76 59.2452 12.76C59.8852 12.76 60.3785 12.64 60.7252 12.4C61.0852 12.1467 61.2652 11.8267 61.2652 11.44C61.2652 11.0267 61.0652 10.72 60.6652 10.52C60.2785 10.32 59.6585 10.1 58.8052 9.86C57.9785 9.63333 57.3052 9.41333 56.7852 9.2C56.2652 8.98667 55.8118 8.66 55.4252 8.22C55.0518 7.78 54.8652 7.2 54.8652 6.48C54.8652 5.89333 55.0385 5.36 55.3852 4.88C55.7318 4.38667 56.2252 4 56.8652 3.72C57.5185 3.44 58.2652 3.3 59.1052 3.3C60.3585 3.3 61.3652 3.62 62.1252 4.26C62.8985 4.88667 63.3118 5.74667 63.3652 6.84H61.0852C61.0452 6.34667 60.8452 5.95333 60.4852 5.66C60.1252 5.36667 59.6385 5.22 59.0252 5.22C58.4252 5.22 57.9652 5.33333 57.6452 5.56C57.3252 5.78667 57.1652 6.08667 57.1652 6.46C57.1652 6.75333 57.2718 7 57.4852 7.2C57.6985 7.4 57.9585 7.56 58.2652 7.68C58.5718 7.78667 59.0252 7.92667 59.6252 8.1C60.4252 8.31333 61.0785 8.53333 61.5852 8.76C62.1052 8.97333 62.5518 9.29333 62.9252 9.72C63.2985 10.1467 63.4918 10.7133 63.5052 11.42C63.5052 12.0467 63.3318 12.6067 62.9852 13.1C62.6385 13.5933 62.1452 13.98 61.5052 14.26C60.8785 14.54 60.1385 14.68 59.2852 14.68Z" fill="#1E1E1E"/>
</svg>
