<svg width="48" height="51" viewBox="0 0 48 51" fill="none" xmlns="http://www.w3.org/2000/svg">
<path d="M30.1953 17.0991H33.2456V5.12033L44.2221 9.77834V44.1293L47.1799 42.7684V7.43819L30.1953 0.200195V17.0991Z" fill="#1E1E1E"/>
<path d="M14.1436 30.3702V27.4015H33.2694V45.7131L38.4534 43.4328V10.5176L41.5035 11.9087V45.3171L30.2117 50.1998V30.3702H14.1436Z" fill="#1E1E1E"/>
<path d="M3.18891 6.34668L0 7.72268L0.107753 42.978L16.7458 50.1937H17.1001V33.2422H14.0344V45.2736L3.18891 40.6746V6.34668Z" fill="#1E1E1E"/>
<path d="M5.89258 5.09012V38.6108L8.8504 39.8896V7.03427L14.0268 4.84386V22.954H33.0293V20.0752H17.1308V0.230469L5.89258 5.09012Z" fill="#1E1E1E"/>
</svg>
