<svg width="120" height="22" viewBox="0 0 120 22" fill="none" xmlns="http://www.w3.org/2000/svg">
<path d="M16.06 1.07667V21H12.792V12.2853H3.418V21H0.15V1.07667H3.418V9.61933H12.792V1.07667H16.06ZM28.8762 21.2007C27.0225 21.2007 25.312 20.7707 23.7449 19.9107C22.1969 19.0316 20.9642 17.818 20.0469 16.27C19.1487 14.7029 18.6996 12.9447 18.6996 10.9953C18.6996 9.046 19.1487 7.29733 20.0469 5.74933C20.9642 4.20133 22.1969 2.99733 23.7449 2.13733C25.312 1.25822 27.0225 0.818666 28.8762 0.818666C30.7491 0.818666 32.4596 1.25822 34.0076 2.13733C35.5747 2.99733 36.8074 4.20133 37.7056 5.74933C38.6038 7.29733 39.0529 9.046 39.0529 10.9953C39.0529 12.9447 38.6038 14.7029 37.7056 16.27C36.8074 17.818 35.5747 19.0316 34.0076 19.9107C32.4596 20.7707 30.7491 21.2007 28.8762 21.2007ZM28.8762 18.3627C30.1949 18.3627 31.3702 18.0664 32.4022 17.474C33.4342 16.8624 34.2369 16.0024 34.8102 14.894C35.4027 13.7664 35.6989 12.4669 35.6989 10.9953C35.6989 9.52378 35.4027 8.23378 34.8102 7.12533C34.2369 6.01689 33.4342 5.16644 32.4022 4.574C31.3702 3.98156 30.1949 3.68533 28.8762 3.68533C27.5576 3.68533 26.3822 3.98156 25.3502 4.574C24.3182 5.16644 23.506 6.01689 22.9136 7.12533C22.3402 8.23378 22.0536 9.52378 22.0536 10.9953C22.0536 12.4669 22.3402 13.7664 22.9136 14.894C23.506 16.0024 24.3182 16.8624 25.3502 17.474C26.3822 18.0664 27.5576 18.3627 28.8762 18.3627ZM52.0441 21L47.4574 13.0307H44.9634V21H41.6954V1.07667H48.5754C50.1043 1.07667 51.3943 1.34422 52.4454 1.87933C53.5156 2.41444 54.3087 3.13111 54.8247 4.02933C55.3598 4.92756 55.6274 5.93089 55.6274 7.03933C55.6274 8.33889 55.2452 9.52378 54.4807 10.594C53.7354 11.6451 52.5792 12.3618 51.0121 12.744L55.9427 21H52.0441ZM44.9634 10.422H48.5754C49.7985 10.422 50.7158 10.1162 51.3274 9.50467C51.9581 8.89311 52.2734 8.07133 52.2734 7.03933C52.2734 6.00733 51.9676 5.20467 51.3561 4.63133C50.7445 4.03889 49.8176 3.74267 48.5754 3.74267H44.9634V10.422ZM62.5027 1.07667V21H59.2347V1.07667H62.5027ZM69.3733 18.162H78.6326V21H65.5033V18.4487L74.7339 3.91467H65.5033V1.07667H78.6326V3.628L69.3733 18.162ZM90.719 21.2007C88.8652 21.2007 87.1547 20.7707 85.5876 19.9107C84.0396 19.0316 82.807 17.818 81.8896 16.27C80.9914 14.7029 80.5423 12.9447 80.5423 10.9953C80.5423 9.046 80.9914 7.29733 81.8896 5.74933C82.807 4.20133 84.0396 2.99733 85.5876 2.13733C87.1547 1.25822 88.8652 0.818666 90.719 0.818666C92.5919 0.818666 94.3023 1.25822 95.8503 2.13733C97.4174 2.99733 98.6501 4.20133 99.5483 5.74933C100.447 7.29733 100.896 9.046 100.896 10.9953C100.896 12.9447 100.447 14.7029 99.5483 16.27C98.6501 17.818 97.4174 19.0316 95.8503 19.9107C94.3023 20.7707 92.5919 21.2007 90.719 21.2007ZM90.719 18.3627C92.0376 18.3627 93.213 18.0664 94.245 17.474C95.277 16.8624 96.0796 16.0024 96.653 14.894C97.2454 13.7664 97.5416 12.4669 97.5416 10.9953C97.5416 9.52378 97.2454 8.23378 96.653 7.12533C96.0796 6.01689 95.277 5.16644 94.245 4.574C93.213 3.98156 92.0376 3.68533 90.719 3.68533C89.4003 3.68533 88.225 3.98156 87.193 4.574C86.161 5.16644 85.3487 6.01689 84.7563 7.12533C84.183 8.23378 83.8963 9.52378 83.8963 10.9953C83.8963 12.4669 84.183 13.7664 84.7563 14.894C85.3487 16.0024 86.161 16.8624 87.193 17.474C88.225 18.0664 89.4003 18.3627 90.719 18.3627ZM119.907 21H116.639L106.806 6.122V21H103.538V1.048H106.806L116.639 15.8973V1.048H119.907V21Z" fill="black"/>
</svg>
