<svg width="89" height="16" viewBox="0 0 89 16" fill="none" xmlns="http://www.w3.org/2000/svg">
<path d="M10.48 1.6V3.46H6.78V15.5H4.5V3.46H0.78V1.6H10.48ZM22.4891 9.72C22.4891 10.1333 22.4624 10.5067 22.4091 10.84H13.9891C14.0557 11.72 14.3824 12.4267 14.9691 12.96C15.5557 13.4933 16.2757 13.76 17.1291 13.76C18.3557 13.76 19.2224 13.2467 19.7291 12.22H22.1891C21.8557 13.2333 21.2491 14.0667 20.3691 14.72C19.5024 15.36 18.4224 15.68 17.1291 15.68C16.0757 15.68 15.1291 15.4467 14.2891 14.98C13.4624 14.5 12.8091 13.8333 12.3291 12.98C11.8624 12.1133 11.6291 11.1133 11.6291 9.98C11.6291 8.84667 11.8557 7.85333 12.3091 7C12.7757 6.13333 13.4224 5.46667 14.2491 5C15.0891 4.53333 16.0491 4.3 17.1291 4.3C18.1691 4.3 19.0957 4.52667 19.9091 4.98C20.7224 5.43333 21.3557 6.07333 21.8091 6.9C22.2624 7.71333 22.4891 8.65333 22.4891 9.72ZM20.1091 9C20.0957 8.16 19.7957 7.48667 19.2091 6.98C18.6224 6.47333 17.8957 6.22 17.0291 6.22C16.2424 6.22 15.5691 6.47333 15.0091 6.98C14.4491 7.47333 14.1157 8.14667 14.0091 9H20.1091ZM23.5728 9.98C23.5728 8.84667 23.7995 7.85333 24.2528 7C24.7195 6.13333 25.3595 5.46667 26.1728 5C26.9861 4.53333 27.9195 4.3 28.9728 4.3C30.3061 4.3 31.4061 4.62 32.2728 5.26C33.1528 5.88667 33.7461 6.78667 34.0528 7.96H31.5928C31.3928 7.41333 31.0728 6.98667 30.6328 6.68C30.1928 6.37333 29.6395 6.22 28.9728 6.22C28.0395 6.22 27.2928 6.55333 26.7328 7.22C26.1861 7.87333 25.9128 8.79333 25.9128 9.98C25.9128 11.1667 26.1861 12.0933 26.7328 12.76C27.2928 13.4267 28.0395 13.76 28.9728 13.76C30.2928 13.76 31.1661 13.18 31.5928 12.02H34.0528C33.7328 13.14 33.1328 14.0333 32.2528 14.7C31.3728 15.3533 30.2795 15.68 28.9728 15.68C27.9195 15.68 26.9861 15.4467 26.1728 14.98C25.3595 14.5 24.7195 13.8333 24.2528 12.98C23.7995 12.1133 23.5728 11.1133 23.5728 9.98ZM41.625 4.3C42.465 4.3 43.2117 4.48 43.865 4.84C44.5317 5.2 45.0517 5.73333 45.425 6.44C45.8117 7.14667 46.005 8 46.005 9V15.5H43.745V9.34C43.745 8.35333 43.4983 7.6 43.005 7.08C42.5117 6.54667 41.8383 6.28 40.985 6.28C40.1317 6.28 39.4517 6.54667 38.945 7.08C38.4517 7.6 38.205 8.35333 38.205 9.34V15.5H35.925V0.7H38.205V5.76C38.5917 5.29333 39.0783 4.93333 39.665 4.68C40.265 4.42667 40.9183 4.3 41.625 4.3ZM54.0733 4.3C54.9399 4.3 55.7133 4.48 56.3933 4.84C57.0866 5.2 57.6266 5.73333 58.0133 6.44C58.4 7.14667 58.5933 8 58.5933 9V15.5H56.3333V9.34C56.3333 8.35333 56.0866 7.6 55.5933 7.08C55.0999 6.54667 54.4266 6.28 53.5733 6.28C52.7199 6.28 52.0399 6.54667 51.5333 7.08C51.0399 7.6 50.7933 8.35333 50.7933 9.34V15.5H48.5133V4.48H50.7933V5.74C51.1666 5.28667 51.6399 4.93333 52.2133 4.68C52.7999 4.42667 53.4199 4.3 54.0733 4.3ZM62.2616 3.02C61.8482 3.02 61.5016 2.88 61.2216 2.6C60.9416 2.32 60.8016 1.97333 60.8016 1.56C60.8016 1.14667 60.9416 0.799999 61.2216 0.52C61.5016 0.239999 61.8482 0.0999992 62.2616 0.0999992C62.6616 0.0999992 63.0016 0.239999 63.2816 0.52C63.5616 0.799999 63.7016 1.14667 63.7016 1.56C63.7016 1.97333 63.5616 2.32 63.2816 2.6C63.0016 2.88 62.6616 3.02 62.2616 3.02ZM63.3816 4.48V15.5H61.1016V4.48H63.3816ZM65.215 9.98C65.215 8.84667 65.4417 7.85333 65.895 7C66.3617 6.13333 67.0017 5.46667 67.815 5C68.6283 4.53333 69.5617 4.3 70.615 4.3C71.9483 4.3 73.0483 4.62 73.915 5.26C74.795 5.88667 75.3883 6.78667 75.695 7.96H73.235C73.035 7.41333 72.715 6.98667 72.275 6.68C71.835 6.37333 71.2817 6.22 70.615 6.22C69.6817 6.22 68.935 6.55333 68.375 7.22C67.8283 7.87333 67.555 8.79333 67.555 9.98C67.555 11.1667 67.8283 12.0933 68.375 12.76C68.935 13.4267 69.6817 13.76 70.615 13.76C71.935 13.76 72.8083 13.18 73.235 12.02H75.695C75.375 13.14 74.775 14.0333 73.895 14.7C73.015 15.3533 71.9217 15.68 70.615 15.68C69.5617 15.68 68.6283 15.4467 67.815 14.98C67.0017 14.5 66.3617 13.8333 65.895 12.98C65.4417 12.1133 65.215 11.1133 65.215 9.98ZM76.8072 9.94C76.8072 8.83333 77.0339 7.85333 77.4872 7C77.9539 6.14667 78.5805 5.48667 79.3672 5.02C80.1672 4.54 81.0472 4.3 82.0072 4.3C82.8739 4.3 83.6272 4.47333 84.2672 4.82C84.9205 5.15333 85.4405 5.57333 85.8272 6.08V4.48H88.1272V15.5H85.8272V13.86C85.4405 14.38 84.9139 14.8133 84.2472 15.16C83.5805 15.5067 82.8205 15.68 81.9672 15.68C81.0205 15.68 80.1539 15.44 79.3672 14.96C78.5805 14.4667 77.9539 13.7867 77.4872 12.92C77.0339 12.04 76.8072 11.0467 76.8072 9.94ZM85.8272 9.98C85.8272 9.22 85.6672 8.56 85.3472 8C85.0405 7.44 84.6339 7.01333 84.1272 6.72C83.6205 6.42667 83.0739 6.28 82.4872 6.28C81.9005 6.28 81.3539 6.42667 80.8472 6.72C80.3405 7 79.9272 7.42 79.6072 7.98C79.3005 8.52667 79.1472 9.18 79.1472 9.94C79.1472 10.7 79.3005 11.3667 79.6072 11.94C79.9272 12.5133 80.3405 12.9533 80.8472 13.26C81.3672 13.5533 81.9139 13.7 82.4872 13.7C83.0739 13.7 83.6205 13.5533 84.1272 13.26C84.6339 12.9667 85.0405 12.54 85.3472 11.98C85.6672 11.4067 85.8272 10.74 85.8272 9.98Z" fill="#1E1E1E"/>
</svg>
